<svg xmlns="http://www.w3.org/2000/svg" viewBox="0.00 0.00 1000.00 922.00"><path fill="#040000" d="M389.26 0q-5.64 2.66-11.13 5.11c-71.33 31.78-124.29 91.66-144.4 167.4q-10.07 37.96-9.74 77.65 0 .78.35 1.48l172.44 343.38q.06.12.16.08h.01q.1-.03.04-.22L286.27 264.47a1.38 1.38 0 0 1 .24-1.31L499.5 0h1.05l212.99 263.21q.46.56.23 1.25L603.01 594.92q-.05.15.06.18v.01q.11.03.16-.08l172.68-343.81a.6.58 60 0 0 .07-.28q.57-47.81-13.6-91.75c-22.95-71.11-75.91-126.5-144.1-155.63q-3.75-1.6-7.51-3.56h194.47l86.33 249.2a1.14 1.13 51 0 1-.1.97l-391.2 639.97a.32.32 0 0 1-.54 0l-391.22-640.1a.88.85-52 0 1-.08-.75L194.81 0zm-26.12 263.13a.84.84 0 0 0-.15.85L499.57 623.1q.53 1.39.53-.1V105.51q0-.83-.54-.21zM0 586.61q.01-.11 0-.22l77.76-240.88q.29-.91.47.03l23.37 123.43a4.07 4.01-69.6 0 0 .79 1.76q18.93 24.43 349.66 450.23.28.37-.07.37a.15.1 55.3 0 1-.08-.03zM898.52 469.16l23.29-123.68a.05.03 76.7 0 1 .01-.03q.31-.48.47.04 49.25 152.83 77.57 240.54.19.59-.3.95L548.73 920.9q-1.52 1.12-.36-.37l349.51-449.94q.49-.64.64-1.43"/></svg>